# xmcd CD database file
#
# Track frame offsets:
#	150
#	21074
#	39729
#	60759
#	78931
#	100100
#	119046
#	139610
#	161236
#	182583
#	202870
#	223672
#
# Disc length: 3266 seconds
#
# Revision: 0
# Processed by: cddbd v1.5.2PL0 Copyright (c) Steve Scherf et al.
# Submitted via: CDex 1.70beta2
#
DISCID=9c0cc00c
DTITLE=ConEctor - ConEctor
DYEAR=2006
DGENRE=Salsa
TTITLE0=Troncoroca vientomar
TTITLE1=Damaquiel
TTITLE2=Tonada tambor
TTITLE3=Música somos
TTITLE4=Otravez
TTITLE5=Altísimo
TTITLE6=Fruto real
TTITLE7=Durgamaloka
TTITLE8=Lamente Zen
TTITLE9=Ooohhhh
TTITLE10=Tiempo paralelo le
TTITLE11=Troncoroca vientomar surroundmix
EXTD=YEAR: 2006
EXTT0=
EXTT1=
EXTT2=
EXTT3=
EXTT4=
EXTT5=
EXTT6=
EXTT7=
EXTT8=
EXTT9=
EXTT10=
EXTT11=
PLAYORDER=
